<svg width="30" height="30" viewBox="0 0 30 30" fill="none" xmlns="http://www.w3.org/2000/svg">
<g clip-path="url(#clip0)">
<path d="M25.5102 23.5425H23.5729V21.6052C23.5729 21.3296 23.3494 21.1063 23.074 21.1063C22.7984 21.1063 22.5752 21.3296 22.5752 21.6052V23.5425H20.5215C20.2462 23.5425 20.0227 23.7657 20.0227 24.0413C20.0227 24.3169 20.2462 24.5402 20.5215 24.5402H22.5752V26.5938C22.5752 26.8692 22.7984 27.0927 23.074 27.0927C23.3494 27.0927 23.5729 26.8692 23.5729 26.5938V24.5402H25.5102C25.7858 24.5402 26.009 24.3169 26.009 24.0413C26.009 23.7657 25.7858 23.5425 25.5102 23.5425Z" fill="#1B0A2C"/>
<path d="M23.8691 18.262L22.1857 8.75938C22.037 7.80118 21.2099 7.09575 20.2403 7.09965H18.4002V5.36169C18.4002 2.40051 15.9997 0 13.0385 0C10.0773 0 7.6768 2.40051 7.6768 5.36169V7.09965H5.83695C4.86734 7.09547 4.04025 7.80118 3.89132 8.75938L1.14477 24.2654C1.13948 24.2944 1.13698 24.3233 1.13698 24.3526C1.13921 26.2523 2.67867 27.7917 4.57865 27.7939H18.4163C20.0719 29.8557 22.8967 30.5642 25.3289 29.528C27.7614 28.4919 29.2076 25.9638 28.8677 23.3417C28.5281 20.7199 26.4853 18.644 23.8691 18.262V18.262ZM8.67453 5.36169C8.67453 2.95144 10.6285 0.997731 13.0385 0.997731C15.4487 0.997731 17.4025 2.95144 17.4025 5.36169V7.09965H8.67453V5.36169ZM2.13527 24.3943L4.87457 8.92864C4.87513 8.92558 4.87569 8.92224 4.87624 8.91917C4.94862 8.44508 5.35729 8.09543 5.83695 8.09738H7.6768V10.808C7.6768 11.0836 7.90034 11.3069 8.17566 11.3069C8.45126 11.3069 8.67453 11.0836 8.67453 10.808V8.09738H17.4025V10.808C17.4025 11.0836 17.6257 11.3069 17.9013 11.3069C18.1769 11.3069 18.4002 11.0836 18.4002 10.808V8.09738H20.2403C20.7197 8.09543 21.1286 8.44508 21.2007 8.91917C21.2013 8.92224 21.2018 8.92558 21.2024 8.92864L22.8454 18.2036C20.8207 18.2626 18.9678 19.3558 17.9369 21.0996C16.9064 22.8434 16.8418 24.994 17.7663 26.7962H4.57893C3.24602 26.7948 2.15949 25.7269 2.13527 24.3943V24.3943ZM23.0164 29.0019C21.456 28.9982 19.9895 28.2558 19.0636 26.9997C17.9712 25.5101 17.8089 23.5327 18.6435 21.8849C19.4784 20.2369 21.1684 19.198 23.0158 19.1974C23.1447 19.1974 23.2753 19.2024 23.4036 19.2125C26.0274 19.4207 28.0184 21.6636 27.9143 24.2935C27.8101 26.9234 25.6479 29.0019 23.0158 29.0021L23.0164 29.0019Z" fill="#1B0A2C"/>
</g>
<defs>
<clipPath id="clip0">
<rect width="30" height="30" fill="white"/>
</clipPath>
</defs>
</svg>
