<svg width="10" height="10" viewBox="0 0 10 10" fill="none" xmlns="http://www.w3.org/2000/svg">
<g clip-path="url(#clip0)">
<path d="M9.98566 3.85264C9.9512 3.74656 9.85954 3.66926 9.74919 3.65324L6.64915 3.20276L5.26273 0.393647C5.21339 0.293647 5.11154 0.230347 5.00003 0.230347C4.88851 0.230347 4.78667 0.293647 4.73732 0.393647L3.35084 3.20276L0.250852 3.65324C0.14052 3.66926 0.0488211 3.74656 0.0143681 3.85262C-0.0201044 3.95869 0.00864546 4.07512 0.0885084 4.15295L2.33162 6.33954L1.80217 9.42709C1.78331 9.53701 1.8285 9.64806 1.91872 9.71363C1.96975 9.7507 2.0302 9.76957 2.09094 9.76957C2.13758 9.76957 2.18438 9.75845 2.22723 9.73591L5.00001 8.27815L7.77268 9.73589C7.87141 9.78779 7.991 9.77916 8.08121 9.71361C8.17143 9.64806 8.21664 9.53697 8.19779 9.42705L7.66817 6.33954L9.91154 4.15293C9.99138 4.07512 10.0201 3.95869 9.98566 3.85264Z" fill="#AF74C4"/>
</g>
<defs>
<clipPath id="clip0">
<rect width="10" height="10" fill="white"/>
</clipPath>
</defs>
</svg>
