<svg width="10" height="10" viewBox="0 0 10 10" fill="none" xmlns="http://www.w3.org/2000/svg">
<g clip-path="url(#clip0)">
<path d="M2.23819 9.79782C2.12863 9.79782 2.01983 9.76364 1.92698 9.6965C1.75401 9.57115 1.67322 9.35569 1.72029 9.14778L2.36362 6.31392L0.181861 4.40057C0.0214875 4.26057 -0.0397781 4.03886 0.0260653 3.83598C0.0919086 3.6335 0.271051 3.49014 0.483154 3.47053L3.36989 3.20845L4.5112 0.53756C4.59535 0.341327 4.78701 0.2146 4.99995 0.2146C5.21289 0.2146 5.40454 0.341327 5.4887 0.537102L6.63001 3.20845L9.51628 3.47053C9.72884 3.48968 9.90799 3.6335 9.97383 3.83598C10.0397 4.03847 9.97879 4.26057 9.81842 4.40057L7.63666 6.31354L8.27998 9.14732C8.32714 9.35569 8.24626 9.57115 8.07338 9.69612C7.90087 9.82109 7.67084 9.83071 7.48918 9.72153L4.99995 8.23399L2.51072 9.72237C2.42656 9.77234 2.3328 9.79782 2.23819 9.79782V9.79782ZM4.99995 7.59318C5.09455 7.59318 5.18825 7.61858 5.27248 7.66856L7.6217 9.07362L7.01454 6.39892C6.9712 6.20856 7.03583 6.00981 7.18293 5.88102L9.24299 4.07433L6.51747 3.82683C6.32124 3.8089 6.15247 3.68553 6.0758 3.50471L4.99995 0.984196L3.9228 3.50509C3.84696 3.68469 3.6782 3.80806 3.48242 3.82599L0.756522 4.07349L2.81651 5.88018C2.96407 6.00935 3.02861 6.20772 2.9849 6.39854L2.37819 9.07316L4.72742 7.66856C4.81157 7.61858 4.90534 7.59318 4.99995 7.59318V7.59318ZM3.34784 3.2601C3.34784 3.2601 3.34784 3.26056 3.34738 3.26094L3.34784 3.2601ZM6.65122 3.25888L6.65168 3.25972C6.65168 3.25926 6.65168 3.25926 6.65122 3.25888Z" fill="#AF74C4"/>
</g>
<defs>
<clipPath id="clip0">
<rect width="10" height="10" fill="white"/>
</clipPath>
</defs>
</svg>
